<svg width="71" height="70" fill="none" xmlns="http://www.w3.org/2000/svg"><g opacity=".3" fill="#333"><path d="M18.127 63.03a1 1 0 0 1-1-1v-1.282c0-7.564 6.191-13.696 13.828-13.696h9.218C47.809 47.052 54 53.184 54 60.748v1.283a1 1 0 0 1-1 1H18.127ZM35.564 40.205c-5.091 0-9.218-4.088-9.218-9.131s4.127-9.13 9.218-9.13c5.09 0 9.218 4.087 9.218 9.13 0 5.043-4.127 9.13-9.218 9.13Z" stroke="#333" stroke-width="2" stroke-linecap="round"/><path d="M59.397 22.011a.5.5 0 0 1 .883 0l1.697 3.187a.5.5 0 0 0 .357.258l3.577.613a.5.5 0 0 1 .272.843l-2.524 2.572a.5.5 0 0 0-.138.422l.516 3.555a.5.5 0 0 1-.713.522l-3.267-1.591a.5.5 0 0 0-.438 0l-3.266 1.59a.5.5 0 0 1-.714-.52l.517-3.556a.5.5 0 0 0-.138-.422l-2.524-2.572a.5.5 0 0 1 .272-.843l3.577-.613a.5.5 0 0 0 .357-.258l1.697-3.187ZM10.233 22.011a.5.5 0 0 1 .883 0l1.697 3.187a.5.5 0 0 0 .357.258l3.577.613a.5.5 0 0 1 .272.843l-2.524 2.572a.5.5 0 0 0-.138.422l.517 3.555a.5.5 0 0 1-.714.522l-3.267-1.591a.5.5 0 0 0-.437 0l-3.267 1.59a.5.5 0 0 1-.713-.52l.516-3.556a.5.5 0 0 0-.138-.422L4.33 26.912a.5.5 0 0 1 .272-.843l3.577-.613a.5.5 0 0 0 .357-.258l1.697-3.187ZM19.451 8.316a.5.5 0 0 1 .883 0l1.698 3.186a.5.5 0 0 0 .356.258l3.577.613a.5.5 0 0 1 .273.843l-2.525 2.572a.5.5 0 0 0-.137.422l.516 3.556a.5.5 0 0 1-.714.521l-3.266-1.59a.5.5 0 0 0-.438 0l-3.266 1.59a.5.5 0 0 1-.714-.521l.516-3.556a.5.5 0 0 0-.138-.422l-2.524-2.572a.5.5 0 0 1 .272-.843l3.577-.613a.5.5 0 0 0 .357-.258l1.697-3.186ZM34.815 2.229a.5.5 0 0 1 .883 0l1.697 3.186a.5.5 0 0 0 .357.258l3.577.613a.5.5 0 0 1 .272.843l-2.524 2.572a.5.5 0 0 0-.138.422l.516 3.556a.5.5 0 0 1-.713.521l-3.267-1.59a.5.5 0 0 0-.437 0L31.77 14.2a.5.5 0 0 1-.713-.521l.516-3.556a.5.5 0 0 0-.138-.422L28.912 7.13a.5.5 0 0 1 .272-.843l3.577-.613a.5.5 0 0 0 .357-.258l1.697-3.186ZM50.179 8.316a.5.5 0 0 1 .883 0l1.697 3.186a.5.5 0 0 0 .357.258l3.577.613a.5.5 0 0 1 .272.843l-2.524 2.572a.5.5 0 0 0-.138.422l.516 3.556a.5.5 0 0 1-.714.521l-3.266-1.59a.5.5 0 0 0-.438 0l-3.266 1.59a.5.5 0 0 1-.714-.521l.517-3.556a.5.5 0 0 0-.138-.422l-2.524-2.572a.5.5 0 0 1 .272-.843l3.577-.613a.5.5 0 0 0 .356-.258l1.698-3.186Z"/></g></svg>