<svg width="71" height="70" fill="none" xmlns="http://www.w3.org/2000/svg"><g opacity=".3" fill="#333"><path d="M60.93 33.408a27.927 27.927 0 0 1-47.41 23.567A27.926 27.926 0 0 1 37.096 9.57l-1.782 1.783a6.982 6.982 0 0 0-2.048 4.938A20.944 20.944 0 1 0 54.21 37.234a6.98 6.98 0 0 0 4.934-2.048l1.787-1.778Z"/><path d="M51.492 5.686c.256.384.392.835.391 1.296v11.635h11.636a2.327 2.327 0 0 1 1.647 3.975L55.858 31.9a2.327 2.327 0 0 1-1.648.68h-13l-3.448 3.449a4.655 4.655 0 1 1-9.15 1.205 4.662 4.662 0 0 1 5.86-4.5l3.448-3.445V16.29a2.328 2.328 0 0 1 .68-1.647l9.308-9.31a2.327 2.327 0 0 1 3.584.353Z"/><path d="M33.266 20.944a16.29 16.29 0 1 0 16.29 16.29h-6.418l-.582.582a9.309 9.309 0 1 1-9.872-9.872l.582-.582v-6.418Z"/></g></svg>