<svg width="39" height="39" fill="none" xmlns="http://www.w3.org/2000/svg"><g opacity=".3" clip-path="url(#clip0_18_247)" fill="#FF5900"><path d="M15.145 19.635c-1.009 0-1.832-.332-2.47-.996-.638-.664-.958-1.57-.958-2.719 0-.753.147-1.41.44-1.972.294-.562.697-.99 1.207-1.283.523-.306 1.117-.46 1.78-.46 1.022 0 1.852.34 2.49 1.016.638.663.957 1.563.957 2.7 0 1.148-.319 2.054-.957 2.718-.638.664-1.468.996-2.49.996zm7.927-7.257h2.757l-9.152 13.403h-2.758l9.152-13.403zm-7.927 5.438c.344 0 .619-.153.823-.46.204-.306.306-.785.306-1.436 0-.65-.102-1.13-.306-1.436-.204-.306-.479-.46-.823-.46-.332 0-.606.16-.823.48-.205.306-.307.778-.307 1.416 0 .638.102 1.117.306 1.436.218.307.492.46.824.46zm9.458 8.137c-1.02 0-1.85-.332-2.489-.995-.625-.664-.938-1.57-.938-2.72 0-1.135.32-2.035.957-2.699.639-.677 1.462-1.015 2.47-1.015 1.021 0 1.851.338 2.49 1.015.638.664.957 1.564.957 2.7 0 1.148-.32 2.055-.958 2.718-.638.664-1.468.996-2.489.996zm0-1.819c.345 0 .62-.153.824-.46.204-.306.306-.784.306-1.435s-.102-1.13-.306-1.436c-.205-.307-.48-.46-.824-.46s-.619.153-.823.46c-.204.306-.306.785-.306 1.436 0 .65.102 1.13.306 1.436.204.306.479.46.823.46z"/><path fill-rule="evenodd" clip-rule="evenodd" d="M24.82 4.43L19.923-.56 15.027 4.43 8.133 3.272l-1.03 6.914-6.257 3.116L4.077 19.5l-3.23 6.198 6.256 3.116 1.03 6.914 6.894-1.157 4.896 4.987 4.897-4.987 6.893 1.157 1.03-6.914L39 25.698 35.77 19.5 39 13.302l-6.257-3.116-1.03-6.914L24.82 4.43zm4.598 2.001l-5.551.932-3.944-4.017-3.943 4.017-5.552-.932-.83 5.568-5.038 2.509L7.16 19.5 4.56 24.492l5.039 2.51.83 5.567 5.55-.932 3.944 4.017 3.944-4.017 5.551.932.83-5.568 5.039-2.51-2.602-4.991 2.602-4.992-5.04-2.51-.829-5.567z"/></g><defs><clipPath id="clip0_18_247"><path fill="#fff" d="M0 0h39v39H0z"/></clipPath></defs></svg>