<svg width="38" height="38" fill="none" xmlns="http://www.w3.org/2000/svg"><g opacity=".3" clip-path="url(#clip0_18_342)"><path d="M38 11.893a2.375 2.375 0 00-2.375-2.375h-4.054c1.05-1.034 1.72-2.391 1.72-4.062 0-2.057-1.18-4.292-4.498-4.292-4.364 0-8.01 4.647-9.722 7.251-1.714-2.604-5.472-7.25-9.835-7.25-3.317 0-4.498 2.234-4.498 4.292 0 1.67.69 3.027 1.76 4.062H2.375A2.375 2.375 0 000 11.894v7.109h2.396v15.458a2.375 2.375 0 002.375 2.375h28.488a2.375 2.375 0 002.375-2.375V19.002H38v-7.108z" fill="#FF5900"/><path fill-rule="evenodd" clip-rule="evenodd" d="M28.793 3.54c1.469 0 2.124.616 2.124 1.917 0 2.638-2.945 4.06-5.714 4.06h-4.02c1.687-2.505 4.657-5.978 7.61-5.978zm-19.557 0c2.954 0 6.036 3.472 7.723 5.977h-4.021c-2.77 0-5.825-1.46-5.825-4.098 0-1.3.654-1.88 2.123-1.88zm26.389 13.087H20.187v-4.734h15.438v4.734zm-33.25-4.734h15.438v4.734H2.374v-4.734z" fill="#fff"/><path d="M4.77 19.002h13.043v15.459H4.77V19.002zM33.26 34.46H20.188V19.003H33.26v15.459z" fill="#fff"/></g><defs><clipPath id="clip0_18_342"><path fill="#fff" d="M0 0h38v38H0z"/></clipPath></defs></svg>