<svg width="36" height="36" fill="none" xmlns="http://www.w3.org/2000/svg"><path d="M14.18 22.445v1.847h6.95v1.785h-6.95v3.662h-3.16v-3.662H7.825v-1.785h3.193V7.826h8.609c2.859 0 5.092.637 6.699 1.91 1.607 1.252 2.41 3.047 2.41 5.384 0 2.358-.803 4.174-2.41 5.447-1.607 1.252-3.84 1.878-6.7 1.878h-5.446Zm11.396-7.294c0-1.481-.512-2.619-1.534-3.412-1.023-.793-2.494-1.19-4.414-1.19H14.18v9.298h5.447c1.899 0 3.36-.407 4.382-1.22 1.044-.836 1.566-1.994 1.566-3.476Z" fill="#FF5900" opacity=".3"/></svg>